Normalized EMG Linear Envelopes
nRows=59
nColumns=17

endheader
time	        VM	        VL	        RF	       GRA	        TA	   ADDLONG	   SEMIMEM	      BFLH	        GM	        GL	       TFL	   GLUTMAX	   GLUTMED	      PIRI	    OBTINT	        QF	
1.845	  0.535289	  0.399363	  0.107289	  0.342452	  0.103782	  0.255388	  0.200487	  0.190162	  0.303683	  0.161135	  0.324921	  0.202779	  0.191173	  0.369909	  1.157563	  0.265046	
1.8455	  0.536127	  0.400934	  0.109198	  0.340619	  0.103978	  0.256456	  0.197118	  0.187107	  0.300078	  0.160882	  0.327986	  0.202588	  0.192052	  0.370621	  1.165268	  0.262223	
1.846	  0.536868	  0.402455	  0.111118	  0.338827	  0.104189	  0.257512	  0.193781	  0.184085	  0.296461	  0.160624	  0.331005	  0.202390	  0.192914	  0.371312	  1.173135	  0.259439	
1.8465	  0.537513	  0.403927	  0.113052	  0.337077	  0.104416	  0.258555	  0.190476	  0.181097	  0.292836	  0.160360	  0.333978	  0.202184	  0.193756	  0.371981	  1.181164	  0.256693	
1.847	  0.538057	  0.405349	  0.114997	  0.335371	  0.104660	  0.259587	  0.187205	  0.178142	  0.289203	  0.160092	  0.336902	  0.201968	  0.194578	  0.372627	  1.189354	  0.253985	
1.8475	  0.538502	  0.406722	  0.116953	  0.333710	  0.104920	  0.260607	  0.183968	  0.175221	  0.285566	  0.159819	  0.339777	  0.201742	  0.195378	  0.373250	  1.197705	  0.251317	
1.848	  0.538845	  0.408044	  0.118921	  0.332094	  0.105198	  0.261615	  0.180766	  0.172333	  0.281927	  0.159542	  0.342599	  0.201503	  0.196155	  0.373849	  1.206216	  0.248689	
1.8485	  0.539085	  0.409316	  0.120900	  0.330526	  0.105494	  0.262613	  0.177600	  0.169479	  0.278288	  0.159261	  0.345367	  0.201250	  0.196908	  0.374424	  1.214885	  0.246099	
1.849	  0.539222	  0.410536	  0.122890	  0.329006	  0.105807	  0.263601	  0.174471	  0.166658	  0.274650	  0.158977	  0.348079	  0.200984	  0.197634	  0.374974	  1.223714	  0.243550	
1.8495	  0.539254	  0.411704	  0.124890	  0.327536	  0.106140	  0.264578	  0.171379	  0.163871	  0.271017	  0.158689	  0.350733	  0.200702	  0.198333	  0.375500	  1.232698	  0.241041	
1.85	  0.539181	  0.412820	  0.126900	  0.326116	  0.106492	  0.265546	  0.168325	  0.161118	  0.267390	  0.158399	  0.353327	  0.200403	  0.199004	  0.376000	  1.241839	  0.238572	
1.8505	  0.539001	  0.413883	  0.128920	  0.324748	  0.106864	  0.266505	  0.165310	  0.158397	  0.263770	  0.158107	  0.355859	  0.200087	  0.199644	  0.376475	  1.251133	  0.236144	
1.851	  0.538713	  0.414890	  0.130949	  0.323433	  0.107256	  0.267454	  0.162334	  0.155710	  0.260162	  0.157813	  0.358328	  0.199752	  0.200253	  0.376926	  1.260578	  0.233757	
1.8515	  0.538318	  0.415843	  0.132988	  0.322172	  0.107669	  0.268396	  0.159399	  0.153057	  0.256565	  0.157517	  0.360731	  0.199398	  0.200830	  0.377351	  1.270172	  0.231411	
1.852	  0.537815	  0.416739	  0.135035	  0.320965	  0.108102	  0.269329	  0.156503	  0.150436	  0.252981	  0.157221	  0.363068	  0.199024	  0.201373	  0.377750	  1.279913	  0.229108	
1.8525	  0.537202	  0.417577	  0.137091	  0.319814	  0.108558	  0.270255	  0.153649	  0.147849	  0.249414	  0.156923	  0.365337	  0.198627	  0.201881	  0.378124	  1.289797	  0.226846	
1.853	  0.536478	  0.418356	  0.139155	  0.318719	  0.109035	  0.271174	  0.150836	  0.145295	  0.245863	  0.156626	  0.367537	  0.198209	  0.202352	  0.378473	  1.299822	  0.224626	
1.8535	  0.535643	  0.419076	  0.141227	  0.317681	  0.109534	  0.272086	  0.148064	  0.142773	  0.242332	  0.156328	  0.369668	  0.197767	  0.202786	  0.378795	  1.309984	  0.222449	
1.854	  0.534695	  0.419736	  0.143307	  0.316702	  0.110057	  0.272992	  0.145335	  0.140285	  0.238821	  0.156031	  0.371728	  0.197301	  0.203182	  0.379092	  1.320281	  0.220315	
1.8545	  0.533636	  0.420336	  0.145395	  0.315781	  0.110603	  0.273892	  0.142647	  0.137829	  0.235331	  0.155734	  0.373719	  0.196811	  0.203538	  0.379363	  1.330709	  0.218223	
1.855	  0.532464	  0.420875	  0.147490	  0.314919	  0.111173	  0.274787	  0.140003	  0.135406	  0.231865	  0.155439	  0.375639	  0.196296	  0.203855	  0.379609	  1.341264	  0.216174	
1.8555	  0.531180	  0.421354	  0.149593	  0.314118	  0.111767	  0.275676	  0.137401	  0.133016	  0.228424	  0.155145	  0.377488	  0.195754	  0.204131	  0.379830	  1.351944	  0.214168	
1.856	  0.529785	  0.421773	  0.151703	  0.313376	  0.112387	  0.276559	  0.134843	  0.130658	  0.225009	  0.154853	  0.379268	  0.195187	  0.204366	  0.380028	  1.362745	  0.212205	
1.8565	  0.528279	  0.422131	  0.153820	  0.312696	  0.113032	  0.277438	  0.132327	  0.128333	  0.221622	  0.154563	  0.380976	  0.194592	  0.204559	  0.380203	  1.373663	  0.210285	
1.857	  0.526664	  0.422430	  0.155943	  0.312076	  0.113703	  0.278313	  0.129856	  0.126040	  0.218263	  0.154276	  0.382614	  0.193971	  0.204709	  0.380356	  1.384693	  0.208409	
1.8575	  0.524938	  0.422669	  0.158074	  0.311519	  0.114401	  0.279183	  0.127428	  0.123780	  0.214934	  0.153992	  0.384182	  0.193322	  0.204816	  0.380490	  1.395833	  0.206576	
1.858	  0.523104	  0.422848	  0.160211	  0.311023	  0.115126	  0.280049	  0.125044	  0.121552	  0.211636	  0.153711	  0.385680	  0.192647	  0.204880	  0.380604	  1.407077	  0.204787	
1.8585	  0.521162	  0.422968	  0.162354	  0.310590	  0.115879	  0.280911	  0.122705	  0.119357	  0.208371	  0.153435	  0.387110	  0.191944	  0.204900	  0.380702	  1.418421	  0.203043	
1.859	  0.519113	  0.423030	  0.164503	  0.310220	  0.116659	  0.281769	  0.120409	  0.117194	  0.205138	  0.153163	  0.388471	  0.191214	  0.204876	  0.380784	  1.429858	  0.201342	
1.8595	  0.516956	  0.423033	  0.166659	  0.309912	  0.117467	  0.282624	  0.118158	  0.115064	  0.201940	  0.152896	  0.389766	  0.190456	  0.204808	  0.380852	  1.441385	  0.199686	
1.86	  0.514695	  0.422977	  0.168820	  0.309668	  0.118304	  0.283476	  0.115951	  0.112965	  0.198777	  0.152634	  0.390995	  0.189671	  0.204696	  0.380908	  1.452994	  0.198075	
1.8605	  0.512329	  0.422864	  0.170986	  0.309486	  0.119169	  0.284324	  0.113789	  0.110899	  0.195651	  0.152378	  0.392160	  0.188858	  0.204540	  0.380953	  1.464678	  0.196508	
1.861	  0.509861	  0.422694	  0.173157	  0.309368	  0.120064	  0.285169	  0.111672	  0.108864	  0.192561	  0.152127	  0.393263	  0.188017	  0.204342	  0.380989	  1.476433	  0.194986	
1.8615	  0.507292	  0.422467	  0.175334	  0.309312	  0.120988	  0.286010	  0.109599	  0.106861	  0.189508	  0.151882	  0.394304	  0.187148	  0.204100	  0.381018	  1.488249	  0.193509	
1.862	  0.504624	  0.422184	  0.177514	  0.309318	  0.121943	  0.286848	  0.107570	  0.104891	  0.186494	  0.151643	  0.395286	  0.186251	  0.203816	  0.381041	  1.500121	  0.192077	
1.8625	  0.501858	  0.421844	  0.179699	  0.309387	  0.122927	  0.287682	  0.105586	  0.102953	  0.183520	  0.151411	  0.396210	  0.185325	  0.203491	  0.381058	  1.512039	  0.190689	
1.863	  0.498996	  0.421449	  0.181888	  0.309518	  0.123942	  0.288512	  0.103646	  0.101047	  0.180585	  0.151185	  0.397077	  0.184370	  0.203124	  0.381071	  1.523997	  0.189346	
1.8635	  0.496041	  0.421000	  0.184080	  0.309711	  0.124989	  0.289337	  0.101751	  0.099173	  0.177691	  0.150967	  0.397890	  0.183386	  0.202716	  0.381081	  1.535986	  0.188048	
1.864	  0.492995	  0.420495	  0.186274	  0.309965	  0.126067	  0.290158	  0.099900	  0.097332	  0.174837	  0.150756	  0.398648	  0.182374	  0.202267	  0.381089	  1.547997	  0.186794	
1.8645	  0.489858	  0.419937	  0.188472	  0.310279	  0.127176	  0.290974	  0.098094	  0.095524	  0.172026	  0.150553	  0.399353	  0.181332	  0.201778	  0.381096	  1.560022	  0.185584	
1.865	  0.486634	  0.419325	  0.190672	  0.310654	  0.128318	  0.291784	  0.096332	  0.093747	  0.169256	  0.150358	  0.400007	  0.180261	  0.201250	  0.381102	  1.572052	  0.184419	
1.8655	  0.483323	  0.418660	  0.192873	  0.311088	  0.129492	  0.292589	  0.094614	  0.092004	  0.166529	  0.150172	  0.400610	  0.179163	  0.200682	  0.381109	  1.584078	  0.183298	
1.866	  0.479928	  0.417943	  0.195076	  0.311581	  0.130698	  0.293388	  0.092940	  0.090292	  0.163845	  0.149995	  0.401163	  0.178036	  0.200074	  0.381118	  1.596089	  0.182220	
1.8665	  0.476451	  0.417172	  0.197280	  0.312132	  0.131937	  0.294180	  0.091311	  0.088613	  0.161205	  0.149827	  0.401667	  0.176881	  0.199428	  0.381128	  1.608077	  0.181185	
1.867	  0.472893	  0.416349	  0.199484	  0.312741	  0.133208	  0.294965	  0.089726	  0.086966	  0.158609	  0.149670	  0.402124	  0.175700	  0.198744	  0.381142	  1.620031	  0.180193	
1.8675	  0.469255	  0.415474	  0.201688	  0.313407	  0.134513	  0.295743	  0.088185	  0.085352	  0.156057	  0.149522	  0.402534	  0.174493	  0.198022	  0.381159	  1.631942	  0.179243	
1.868	  0.465540	  0.414547	  0.203892	  0.314129	  0.135851	  0.296514	  0.086688	  0.083769	  0.153550	  0.149385	  0.402898	  0.173260	  0.197263	  0.381181	  1.643799	  0.178335	
1.8685	  0.461748	  0.413567	  0.206095	  0.314907	  0.137223	  0.297277	  0.085235	  0.082218	  0.151088	  0.149259	  0.403218	  0.172002	  0.196467	  0.381208	  1.655592	  0.177469	
1.869	  0.457882	  0.412536	  0.208296	  0.315739	  0.138628	  0.298030	  0.083825	  0.080700	  0.148671	  0.149144	  0.403493	  0.170721	  0.195636	  0.381242	  1.667309	  0.176643	
1.8695	  0.453942	  0.411454	  0.210494	  0.316625	  0.140067	  0.298775	  0.082459	  0.079213	  0.146300	  0.149041	  0.403724	  0.169415	  0.194769	  0.381282	  1.678939	  0.175858	
1.87	  0.449930	  0.410320	  0.212689	  0.317563	  0.141540	  0.299509	  0.081137	  0.077757	  0.143976	  0.148950	  0.403913	  0.168087	  0.193868	  0.381330	  1.690472	  0.175113	
1.8705	  0.445848	  0.409137	  0.214881	  0.318553	  0.143047	  0.300233	  0.079858	  0.076333	  0.141698	  0.148871	  0.404059	  0.166737	  0.192935	  0.381386	  1.701894	  0.174407	
1.871	  0.441698	  0.407904	  0.217068	  0.319594	  0.144588	  0.300946	  0.078622	  0.074941	  0.139466	  0.148805	  0.404163	  0.165366	  0.191969	  0.381451	  1.713194	  0.173740	
1.8715	  0.437484	  0.406622	  0.219250	  0.320684	  0.146163	  0.301647	  0.077429	  0.073580	  0.137282	  0.148751	  0.404225	  0.163973	  0.190972	  0.381525	  1.724358	  0.173112	
1.872	  0.433206	  0.405292	  0.221426	  0.321823	  0.147773	  0.302335	  0.076279	  0.072251	  0.135146	  0.148711	  0.404246	  0.162561	  0.189945	  0.381608	  1.735373	  0.172521	
1.8725	  0.428870	  0.403915	  0.223595	  0.323010	  0.149417	  0.303012	  0.075172	  0.070952	  0.133057	  0.148683	  0.404225	  0.161129	  0.188890	  0.381701	  1.746226	  0.171968	
1.873	  0.424477	  0.402491	  0.225756	  0.324243	  0.151096	  0.303675	  0.074108	  0.069685	  0.131015	  0.148668	  0.404163	  0.159679	  0.187807	  0.381804	  1.756902	  0.171451	
1.8735	  0.420030	  0.401021	  0.227908	  0.325522	  0.152809	  0.304324	  0.073086	  0.068450	  0.129022	  0.148666	  0.404060	  0.158212	  0.186697	  0.381917	  1.767386	  0.170970	
1.874	  0.415532	  0.399506	  0.230049	  0.326845	  0.154557	  0.304959	  0.072106	  0.067245	  0.127077	  0.148678	  0.403916	  0.156728	  0.185560	  0.382041	  1.777664	  0.170524	
